# xmcd
#
# Track frame offsets: 
#        150
#        75815
#        98560
#
# Disc length: 1708 seconds
#
# Revision: 2
# Processed by: cddbd v1.5.2PL0 Copyright (c) Steve Scherf et al.
# Submitted via: ExactAudioCopy v0.99pb5
#
DISCID=0d06aa03
DTITLE=Johnny Gill - My, My, My - Wrap My Body Tight
DYEAR=1991
DGENRE=R&B
TTITLE0=My, My, My (Live)
TTITLE1=Wrap My Body Tight (12" Remake Version)
TTITLE2=Wrap My Body Tight (12" Remix Version)
EXTD=
EXTT0=
EXTT1=
EXTT2=
PLAYORDER=
